Coordinates
version=1
nRows=10
nColumns=33
inDegrees=yes

Units are S.I. units (second, meters, Newtons, ...)
Angles are in degrees.

endheader
time	ground_thorax_rot_x	ground_thorax_rot_y	ground_thorax_rot_z	ground_thorax_tx	ground_thorax_ty	ground_thorax_tz	clav_prot_r	clav_elev_r	scapula_abduction_r	scapula_elevation_r	scapula_upward_rot_r	scapula_winging_r	shoulder_elv_r	plane_of_elev_r	axial_rot_r	elbow_flexion_r	pro_sup_r	wrist_flex_r	wrist_dev_r	clav_prot_l	clav_elev_l	scapula_abduction_l	scapula_elevation_l	scapula_upward_rot_l	scapula_winging_l	shoulder_elv_l	plane_of_elev_l	axial_rot_l	elbow_flexion_l	pro_sup_l	wrist_flex_l	wrist_dev_l
      6.20000000	     90.00000000	    -90.00000000	    -90.00000000	    -45.99852945	    797.32332039	    -39.87961514	    -45.00000000	     -1.88093698	    -34.83629774	     13.60235397	    -45.00000000	  -2269.32366441	  -1510.93270272	    145.53276773	    156.44199790	      0.48888410	    175.50426362	     13.75033251	     13.44290905	      5.45349175	     45.00000000	    -45.00000000	    -45.00000000	     19.16912712	  -3935.64292687	  -2415.66746578	     11.08846763	    -90.43209955	    350.67956787	   -319.21591496	     12.27032491	    -15.85069596
      6.21000000	     90.00000000	    -90.00000000	    -90.00000000	    -48.65588338	    799.01744201	    -39.88404795	    -45.00000000	     -1.82614831	    -34.73631326	     13.38961054	    -45.00000000	  -2269.17238797	  -1510.72854689	    145.55376461	    156.65162752	      0.45248170	    174.97494390	     13.71561175	     13.50764751	      5.05034982	     45.00000000	    -45.00000000	    -45.00000000	     19.24448886	  -3935.68810232	  -2415.58586444	     11.27932330	    -90.90091397	    350.72892250	   -319.18780525	     12.23850506	    -15.89173020
      6.22000000	     90.00000000	    -90.00000000	    -90.00000000	    -51.24255317	    800.75121550	    -39.87389075	    -45.00000000	     -2.17175092	    -34.54186225	     13.07969015	    -45.00000000	  -2269.20958372	  -1510.56407229	    145.52286846	    156.86050924	      0.42546539	    174.42238985	     13.70396552	     13.58670637	      4.69286775	     45.00000000	    -45.00000000	    -45.00000000	     19.35015288	  -3935.87106678	  -2415.50157454	     11.28173940	    -91.26973166	    350.74793289	   -319.14686338	     12.23489089	    -15.97168693
      6.23000000	     90.00000000	    -90.00000000	    -90.00000000	    -53.76117531	    802.52256037	    -39.84844540	    -45.00000000	     -2.39206714	    -34.34884333	     12.82049282	    -45.00000000	  -2269.19877864	  -1510.43524934	    145.52100470	    157.05071360	      0.40655810	    173.85268752	     13.68738567	     13.66262188	      4.34567325	     45.00000000	    -45.00000000	    -45.00000000	     19.46955466	  -3936.09555053	  -2415.45959335	     11.29556930	    -91.63054245	    350.75108727	   -319.10193982	     12.26090804	    -16.07230841
      6.24000000	     90.00000000	    -90.00000000	    -90.00000000	    -56.21009010	    804.32801334	    -39.80811987	    -45.00000000	     -2.73990989	    -34.12363644	     12.58304301	    -45.00000000	  -2269.21697242	  -1510.36498757	    145.48181295	    157.20655384	      0.33731029	    173.26763183	     13.69686816	     13.72406816	      4.01712347	     45.00000000	    -45.00000000	    -45.00000000	     19.59701174	  -3936.32610961	  -2415.42170322	     11.24450973	    -91.95560164	    350.74477216	   -319.05833864	     12.30747051	    -16.19516654
      6.25000000	     90.00000000	    -90.00000000	    -90.00000000	    -58.59175370	    806.16849766	    -39.75471183	    -45.00000000	     -2.75992289	    -34.00408180	     12.34280829	    -45.00000000	  -2269.13584264	  -1510.21059467	    145.51149564	    157.43131067	      0.35881074	    172.64957811	     13.64192058	     13.77681116	      3.67080157	     45.00000000	    -45.00000000	    -45.00000000	     19.68160943	  -3936.46536903	  -2415.36708960	     11.34961647	    -92.31893708	    350.76048333	   -319.01853492	     12.31133139	    -16.27400950
      6.26000000	     90.00000000	    -90.00000000	    -90.00000000	    -60.90495235	    808.04347799	    -39.69137673	    -45.00000000	     -3.04947522	    -33.80812938	     12.08956008	    -45.00000000	  -2269.14623734	  -1510.09071627	    145.49186657	    157.59079474	      0.32286527	    172.01680461	     13.62501734	     13.82797680	      3.35422074	     45.00000000	    -45.00000000	    -45.00000000	     19.75425381	  -3936.64595057	  -2415.31534475	     11.34606959	    -92.62610186	    350.76844320	   -318.98409438	     12.32671324	    -16.37979106
      6.27000000	     90.00000000	    -90.00000000	    -90.00000000	    -63.15073373	    809.95501537	    -39.62260640	    -45.00000000	     -3.23821862	    -33.64481916	     11.84227422	    -45.00000000	  -2269.12861736	  -1509.98570436	    145.49439703	    157.75701430	      0.31039874	    171.38474591	     13.60067767	     13.87689998	      3.04429546	     45.00000000	    -45.00000000	    -45.00000000	     19.83912596	  -3936.84435372	  -2415.27177494	     11.35874124	    -92.91285785	    350.76332716	   -318.95235685	     12.34919504	    -16.49214663
      6.28000000	     90.00000000	    -90.00000000	    -90.00000000	    -65.32846721	    811.90426852	    -39.55356401	    -45.00000000	     -3.46557480	    -33.46809419	     11.61126986	    -45.00000000	  -2269.11373564	  -1509.88500473	    145.48442935	    157.89297686	      0.27117461	    170.75809386	     13.59045121	     13.92209620	      2.74265748	     45.00000000	    -45.00000000	    -45.00000000	     19.90928226	  -3937.02773433	  -2415.22902422	     11.36414345	    -93.18922810	    350.76126151	   -318.92264658	     12.36780125	    -16.60943011
      6.29000000	     90.00000000	    -90.00000000	    -90.00000000	    -67.43681993	    813.89185261	    -39.48965965	    -45.00000000	     -3.79613860	    -33.27913604	     11.36278093	    -45.00000000	  -2269.13373900	  -1509.81781023	    145.45719892	    157.98368282	      0.19074114	    170.15426334	     13.61633058	     13.96895642	      2.45899672	     45.00000000	    -45.00000000	    -45.00000000	     19.98593819	  -3937.25196676	  -2415.17995462	     11.32826455	    -93.41728653	    350.74242793	   -318.89668993	     12.39758243	    -16.74678075
